<svg xmlns="http://www.w3.org/2000/svg" viewBox="0 0 64 64">
  <!-- Longer/wider sub, warmer bread color -->
  <defs>
    <linearGradient id="bt" x1="0" y1="0" x2="0" y2="1">
      <stop offset="0%" stop-color="#E8B860"/>
      <stop offset="100%" stop-color="#D4A040"/>
    </linearGradient>
  </defs>
  <ellipse cx="32" cy="48" rx="30" ry="2.5" fill="#00000010"/>
  <!-- Bottom bread -->
  <path d="M0 40 Q0 46 32 46 Q64 46 64 40 L64 38 Q64 36 32 36 Q0 36 0 38 Z" fill="#D4A040"/>
  <!-- Lettuce -->
  <path d="M0 36 Q8 32 14 35 Q20 31 26 35 Q32 31 38 35 Q44 31 50 35 Q56 32 64 36" fill="#5CB85C" stroke="#48A448" stroke-width="0.3"/>
  <!-- Tomato slices -->
  <path d="M6 34 A5 5 0 0 1 16 34" fill="#E24040"/>
  <path d="M26 33 A5 5 0 0 1 36 33" fill="#DC3838"/>
  <path d="M46 34 A5 5 0 0 1 56 34" fill="#E24040"/>
  <!-- Cheese -->
  <path d="M2 32 L4 34 L14 32 L16 34 L26 32 L28 34 L38 32 L40 34 L50 32 L52 34 L62 32" fill="#F5D050" stroke="#E8C030" stroke-width="0.3"/>
  <!-- Deli meats -->
  <path d="M2 31 Q10 27 18 31 Q26 27 34 31 Q42 27 50 31 Q58 27 62 31" fill="#E8909C" stroke="#D47888" stroke-width="0.3"/>
  <path d="M2 29 Q12 25 22 29 Q32 25 42 29 Q52 25 62 29" fill="#D4B89C" stroke="#C0A484" stroke-width="0.3"/>
  <path d="M2 27 Q14 23 26 27 Q38 23 50 27 Q58 23 62 27" fill="#E49CA4" stroke="#D08890" stroke-width="0.3"/>
  <!-- Top bread - long, low dome, warm golden -->
  <path d="M0 27 Q0 18 32 16 Q64 18 64 27 Z" fill="url(#bt)"/>
  <path d="M10 21 Q32 16 54 21" fill="none" stroke="#F0C868" stroke-width="2" stroke-linecap="round" opacity="0.45"/>
</svg>