<svg xmlns="http://www.w3.org/2000/svg" viewBox="0 0 64 64">
  <ellipse cx="32" cy="60" rx="22" ry="3" fill="#00000010"/>
  <!-- Container outer border -->
  <rect x="4" y="4" width="56" height="56" rx="8" fill="#C8C4BE" opacity="0.4"/>
  <rect x="5" y="5" width="54" height="54" rx="7" fill="#E0DCD6" opacity="0.5"/>
  <!-- Container inner -->
  <rect x="7" y="7" width="50" height="50" rx="6" fill="#7CB342"/>
  <!-- Subtle darker green leaf circles for texture -->
  <circle cx="20" cy="20" r="10" fill="#6B9E3A" opacity="0.5"/>
  <circle cx="44" cy="32" r="9" fill="#6B9E3A" opacity="0.4"/>
  <circle cx="28" cy="44" r="10" fill="#6B9E3A" opacity="0.45"/>
  <circle cx="48" cy="48" r="7" fill="#6B9E3A" opacity="0.4"/>
  <circle cx="14" cy="38" r="8" fill="#6B9E3A" opacity="0.35"/>
  <!-- Dark green leaf shape - left side, larger -->
  <path d="M10 18 Q8 12 16 10 Q24 10 26 20 Q24 30 16 32 Q10 28 10 18Z" fill="#388E3C"/>
  <!-- Dressing packet - upper left, trapezoid -->
  <path d="M12 12 L26 12 L24 24 L14 24Z" fill="#A1887F"/>
  <path d="M14 14 L24 14 L22 22 L16 22Z" fill="#8D6E63" opacity="0.5"/>
  <!-- Cherry tomatoes - upper right, cluster of round reds -->
  <circle cx="42" cy="14" r="5" fill="#EF5350"/>
  <circle cx="42" cy="14" r="3.5" fill="#E53935" opacity="0.4"/>
  <path d="M40 13 L44 13" stroke="#C62828" stroke-width="0.8" opacity="0.5"/>
  <circle cx="50" cy="16" r="4.5" fill="#EF5350"/>
  <path d="M48 15 L52 15" stroke="#C62828" stroke-width="0.8" opacity="0.5"/>
  <circle cx="46" cy="22" r="4.5" fill="#F44336"/>
  <path d="M44 21 L48 21" stroke="#C62828" stroke-width="0.8" opacity="0.5"/>
  <!-- Small purple onion arc -->
  <path d="M28 28 A3 3 0 0 1 34 28" fill="none" stroke="#7B1FA2" stroke-width="1.5" stroke-linecap="round"/>
  <!-- Grilled chicken/protein - center, more angular/hexagonal -->
  <path d="M22 34 L28 26 L42 28 L46 36 L40 44 L26 42Z" fill="#C8A06A"/>
  <path d="M22 34 L28 26 L42 28 L46 36 L40 44 L26 42Z" fill="none" stroke="#B08850" stroke-width="0.5"/>
  <!-- Grill marks on chicken -->
  <line x1="26" y1="32" x2="34" y2="42" stroke="#8D6E63" stroke-width="1.5" stroke-linecap="round" opacity="0.5"/>
  <line x1="30" y1="30" x2="38" y2="40" stroke="#8D6E63" stroke-width="1.5" stroke-linecap="round" opacity="0.5"/>
  <line x1="34" y1="28" x2="42" y2="38" stroke="#8D6E63" stroke-width="1.5" stroke-linecap="round" opacity="0.5"/>
  <!-- Small green squares - left of chicken -->
  <rect x="12" y="34" width="4" height="4" rx="0.8" fill="#43A047"/>
  <rect x="12" y="40" width="4" height="4" rx="0.8" fill="#388E3C"/>
  <rect x="17" y="37" width="3.5" height="3.5" rx="0.8" fill="#66BB6A"/>
  <!-- Egg/mozzarella circles - below chicken -->
  <circle cx="18" cy="46" r="3.5" fill="#FFF8E1" stroke="#E0D8C0" stroke-width="0.3"/>
  <circle cx="18" cy="46" r="1.2" fill="#FFD54F"/>
  <circle cx="25" cy="48" r="3.5" fill="#FFF8E1" stroke="#E0D8C0" stroke-width="0.3"/>
  <circle cx="25" cy="48" r="1.2" fill="#FFD54F"/>
  <circle cx="32" cy="46" r="3" fill="#FFF8E1" stroke="#E0D8C0" stroke-width="0.3"/>
  <circle cx="32" cy="46" r="1" fill="#FFD54F"/>
  <!-- Dark olives - right of chicken -->
  <circle cx="46" cy="42" r="2.5" fill="#33691E"/>
  <circle cx="50" cy="44" r="2.5" fill="#2E5A18"/>
  <circle cx="48" cy="48" r="2.5" fill="#33691E"/>
</svg>