<svg xmlns="http://www.w3.org/2000/svg" viewBox="0 0 64 64">
  <!-- Face-on perfect circle, flat sugar cookie with dense nonpareils -->
  <defs>
    <radialGradient id="sd" cx="0.45" cy="0.4" r="0.55">
      <stop offset="0%" stop-color="#F5E0B8"/>
      <stop offset="100%" stop-color="#E8CFA0"/>
    </radialGradient>
  </defs>
  <ellipse cx="32" cy="54" rx="22" ry="3" fill="#00000010"/>
  <!-- Cookie - perfect circle -->
  <circle cx="32" cy="32" r="26" fill="url(#sd)"/>
  <!-- Dense nonpareils -->
  <!-- Red --><circle cx="12" cy="22" r="1.1" fill="#FF1744"/><circle cx="28" cy="12" r="1.1" fill="#FF1744"/><circle cx="46" cy="20" r="1.1" fill="#FF1744"/><circle cx="52" cy="34" r="1.1" fill="#FF1744"/><circle cx="18" cy="38" r="1.1" fill="#FF1744"/><circle cx="38" cy="46" r="1.1" fill="#FF1744"/><circle cx="10" cy="32" r="1.0" fill="#FF1744"/><circle cx="30" cy="50" r="1.0" fill="#FF1744"/><circle cx="48" cy="42" r="1.1" fill="#FF1744"/><circle cx="24" cy="24" r="1.0" fill="#FF1744"/>
  <!-- Blue --><circle cx="20" cy="14" r="1.1" fill="#2979FF"/><circle cx="38" cy="12" r="1.1" fill="#2979FF"/><circle cx="52" cy="26" r="1.1" fill="#2979FF"/><circle cx="14" cy="30" r="1.1" fill="#2979FF"/><circle cx="36" cy="30" r="1.1" fill="#2979FF"/><circle cx="50" cy="38" r="1.0" fill="#2979FF"/><circle cx="24" cy="46" r="1.1" fill="#2979FF"/><circle cx="44" cy="48" r="1.0" fill="#2979FF"/><circle cx="12" cy="40" r="1.0" fill="#2979FF"/><circle cx="42" cy="22" r="1.1" fill="#2979FF"/>
  <!-- Yellow --><circle cx="26" cy="10" r="1.0" fill="#FFD600"/><circle cx="16" cy="18" r="1.0" fill="#FFD600"/><circle cx="44" cy="16" r="1.0" fill="#FFD600"/><circle cx="54" cy="30" r="1.0" fill="#FFD600"/><circle cx="20" cy="42" r="1.0" fill="#FFD600"/><circle cx="38" cy="38" r="1.0" fill="#FFD600"/><circle cx="10" cy="26" r="1.0" fill="#FFD600"/><circle cx="48" cy="46" r="0.9" fill="#FFD600"/><circle cx="30" cy="34" r="1.0" fill="#FFD600"/><circle cx="36" cy="52" r="0.9" fill="#FFD600"/>
  <!-- Green --><circle cx="34" cy="14" r="1.0" fill="#00C853"/><circle cx="50" cy="22" r="1.0" fill="#00C853"/><circle cx="12" cy="36" r="1.0" fill="#00C853"/><circle cx="28" cy="28" r="1.0" fill="#00C853"/><circle cx="46" cy="36" r="1.0" fill="#00C853"/><circle cx="18" cy="48" r="1.0" fill="#00C853"/><circle cx="38" cy="48" r="1.0" fill="#00C853"/><circle cx="28" cy="18" r="1.0" fill="#00C853"/>
  <!-- Orange --><circle cx="18" cy="22" r="1.0" fill="#FF6D00"/><circle cx="40" cy="18" r="1.0" fill="#FF6D00"/><circle cx="54" cy="36" r="1.0" fill="#FF6D00"/><circle cx="32" cy="40" r="1.0" fill="#FF6D00"/><circle cx="14" cy="44" r="1.0" fill="#FF6D00"/><circle cx="46" cy="44" r="0.9" fill="#FF6D00"/><circle cx="22" cy="50" r="0.9" fill="#FF6D00"/><circle cx="42" cy="28" r="1.0" fill="#FF6D00"/>
  <!-- Purple --><circle cx="22" cy="16" r="1.0" fill="#AA00FF"/><circle cx="48" cy="18" r="1.0" fill="#AA00FF"/><circle cx="10" cy="34" r="1.0" fill="#AA00FF"/><circle cx="40" cy="34" r="1.0" fill="#AA00FF"/><circle cx="26" cy="44" r="1.0" fill="#AA00FF"/><circle cx="52" cy="40" r="1.0" fill="#AA00FF"/><circle cx="34" cy="24" r="1.0" fill="#AA00FF"/><circle cx="42" cy="50" r="0.9" fill="#AA00FF"/>
  <!-- White --><circle cx="16" cy="26" r="1.0" fill="#FAFAFA"/><circle cx="36" cy="16" r="1.0" fill="#FAFAFA"/><circle cx="52" cy="32" r="1.0" fill="#FAFAFA"/><circle cx="26" cy="36" r="1.0" fill="#FAFAFA"/><circle cx="44" cy="42" r="1.0" fill="#FAFAFA"/><circle cx="16" cy="46" r="0.9" fill="#FAFAFA"/><circle cx="32" cy="46" r="1.0" fill="#FAFAFA"/><circle cx="40" cy="26" r="1.0" fill="#FAFAFA"/>
  <!-- Pink --><circle cx="30" cy="14" r="1.0" fill="#FF4081"/><circle cx="46" cy="26" r="1.0" fill="#FF4081"/><circle cx="16" cy="34" r="1.0" fill="#FF4081"/><circle cx="34" cy="42" r="1.0" fill="#FF4081"/><circle cx="50" cy="44" r="0.9" fill="#FF4081"/><circle cx="22" cy="30" r="1.0" fill="#FF4081"/><circle cx="38" cy="32" r="1.0" fill="#FF4081"/><circle cx="28" cy="52" r="0.9" fill="#FF4081"/>
</svg>