<svg xmlns="http://www.w3.org/2000/svg" viewBox="0 0 64 64">
  <!-- 3 rows of 2 sushi pieces, wasabi+ginger at very bottom, same tray size -->
  <ellipse cx="32" cy="60" rx="16" ry="2" fill="#00000010"/>
  <!-- Clear plastic tray -->
  <rect x="12" y="4" width="40" height="56" rx="3" fill="#F0EFEC" opacity="0.3" stroke="#D8D4CC" stroke-width="0.5"/>
  <!-- Row 1 -->
  <circle cx="24" cy="12" r="7" fill="#F0EDE5" stroke="#E0DCD4" stroke-width="0.3"/>
  <circle cx="24" cy="12" r="4" fill="#2E4A2E"/>
  <circle cx="23" cy="11" r="1.8" fill="#FF8A65"/><circle cx="25" cy="13" r="1.5" fill="#66BB6A"/>
  <circle cx="40" cy="12" r="7" fill="#F0EDE5" stroke="#E0DCD4" stroke-width="0.3"/>
  <circle cx="40" cy="12" r="4" fill="#2E4A2E"/>
  <circle cx="39" cy="11" r="1.8" fill="#FF8A65"/><circle cx="41" cy="13" r="1.5" fill="#66BB6A"/>
  <!-- Row 2 -->
  <circle cx="24" cy="27" r="7" fill="#F0EDE5" stroke="#E0DCD4" stroke-width="0.3"/>
  <circle cx="24" cy="27" r="4" fill="#2E4A2E"/>
  <circle cx="23" cy="26" r="1.8" fill="#FF8A65"/><circle cx="25" cy="28" r="1.5" fill="#66BB6A"/>
  <circle cx="40" cy="27" r="7" fill="#F0EDE5" stroke="#E0DCD4" stroke-width="0.3"/>
  <circle cx="40" cy="27" r="4" fill="#2E4A2E"/>
  <circle cx="39" cy="26" r="1.8" fill="#FF8A65"/><circle cx="41" cy="28" r="1.5" fill="#66BB6A"/>
  <!-- Row 3 -->
  <circle cx="24" cy="42" r="7" fill="#F0EDE5" stroke="#E0DCD4" stroke-width="0.3"/>
  <circle cx="24" cy="42" r="4" fill="#2E4A2E"/>
  <circle cx="23" cy="41" r="1.8" fill="#FF8A65"/><circle cx="25" cy="43" r="1.5" fill="#66BB6A"/>
  <circle cx="40" cy="42" r="7" fill="#F0EDE5" stroke="#E0DCD4" stroke-width="0.3"/>
  <circle cx="40" cy="42" r="4" fill="#2E4A2E"/>
  <circle cx="39" cy="41" r="1.8" fill="#FF8A65"/><circle cx="41" cy="43" r="1.5" fill="#66BB6A"/>
  <!-- Spicy mayo drizzle -->
  <path d="M16 8 Q20 6 24 10 Q28 6 32 10 Q36 6 40 10 Q44 6 48 8" stroke="#FFB74D" stroke-width="1.5" fill="none" stroke-linecap="round"/>
  <path d="M16 12 Q22 10 28 14 Q34 10 40 14 Q46 10 48 12" stroke="#FFB74D" stroke-width="1" fill="none" opacity="0.6" stroke-linecap="round"/>
  <path d="M16 23 Q20 21 24 25 Q28 21 32 25 Q36 21 40 25 Q44 21 48 23" stroke="#FFB74D" stroke-width="1.5" fill="none" stroke-linecap="round"/>
  <path d="M16 27 Q22 25 28 29 Q34 25 40 29 Q46 25 48 27" stroke="#FFB74D" stroke-width="1" fill="none" opacity="0.6" stroke-linecap="round"/>
  <path d="M16 38 Q20 36 24 40 Q28 36 32 40 Q36 36 40 40 Q44 36 48 38" stroke="#FFB74D" stroke-width="1.5" fill="none" stroke-linecap="round"/>
  <path d="M16 42 Q22 40 28 44 Q34 40 40 44 Q46 40 48 42" stroke="#FFB74D" stroke-width="1" fill="none" opacity="0.6" stroke-linecap="round"/>
  <!-- Sesame seeds -->
  <ellipse cx="18" cy="10" rx="1" ry="0.5" fill="#FFF9C4" transform="rotate(20 18 10)"/>
  <ellipse cx="46" cy="10" rx="1" ry="0.5" fill="#FFF9C4" transform="rotate(-15 46 10)"/>
  <ellipse cx="18" cy="25" rx="1" ry="0.5" fill="#FFF9C4" transform="rotate(10 18 25)"/>
  <ellipse cx="46" cy="40" rx="1" ry="0.5" fill="#FFF9C4" transform="rotate(-10 46 40)"/>
  <!-- Wasabi blob -->
  <ellipse cx="24" cy="54" rx="4" ry="2.5" fill="#7CB342"/>
  <!-- Pickled ginger -->
  <path d="M34 52 Q36 50 38 52 Q40 50 42 52 Q40 54 38 54 Q36 54 34 52" fill="#F8BBD0"/>
  <path d="M36 53 Q38 51 40 53" fill="#F48FB1" opacity="0.5"/>
</svg>